<svg width="100" height="36" viewBox="0 0 100 36" fill="none" xmlns="http://www.w3.org/2000/svg">
<path d="M5.62766 19.1473L1 22.2918L15.9202 33L31 22.2918L26.2128 19.1473C22.9947 22.2068 17.2766 27.3909 13.8457 24.8414L5.62766 19.1473Z" fill="#151419"/>
<path d="M7.46277 18.3824L15.9202 12.4334L24.4574 17.7025L15.9202 23.4816L7.46277 18.3824Z" fill="#151419"/>
<path d="M1 12.9433L15.5213 3L31 12.9433L26.2128 16.6827C22.9149 13.5666 16.5585 8.69405 13.8457 11.2436L5.62766 16.6827L1 12.9433Z" fill="#151419"/>
<path d="M5.62766 19.1473L1 22.2918L15.9202 33L31 22.2918L26.2128 19.1473C22.9947 22.2068 17.2766 27.3909 13.8457 24.8414L5.62766 19.1473Z" stroke="url(#paint0_linear_7_2428)" stroke-width="0.5" stroke-linejoin="round"/>
<path d="M7.46277 18.3824L15.9202 12.4334L24.4574 17.7025L15.9202 23.4816L7.46277 18.3824Z" stroke="url(#paint1_linear_7_2428)" stroke-width="0.5" stroke-linejoin="round"/>
<path d="M1 12.9433L15.5213 3L31 12.9433L26.2128 16.6827C22.9149 13.5666 16.5585 8.69405 13.8457 11.2436L5.62766 16.6827L1 12.9433Z" stroke="url(#paint2_linear_7_2428)" stroke-width="0.5" stroke-linejoin="round"/>
<path d="M50.0703 17.4297V20.3125H39.5469V17.4297H50.0703ZM50.0938 23.2188V26.1016H39.5703V23.2188H50.0938ZM55.9766 21.3203C55.9453 21.0703 55.8711 20.8594 55.7539 20.6875C55.6445 20.5156 55.5234 20.375 55.3906 20.2656C55.2422 20.1328 55.0781 20.0234 54.8984 19.9375L56.2109 17.6406C56.5 17.7422 56.7891 17.8789 57.0781 18.0508C57.3203 18.1992 57.5742 18.3906 57.8398 18.625C58.1133 18.8516 58.3516 19.1328 58.5547 19.4688C58.9453 19.2188 59.3438 18.9844 59.75 18.7656C60.1641 18.5391 60.5938 18.3438 61.0391 18.1797C61.4922 18.0156 61.9648 17.8867 62.457 17.793C62.957 17.6914 63.4922 17.6406 64.0625 17.6406C65.2656 17.6406 66.2969 17.7422 67.1562 17.9453C68.0234 18.1406 68.7305 18.4375 69.2773 18.8359C69.832 19.2266 70.2383 19.7148 70.4961 20.3008C70.7539 20.8867 70.8828 21.5703 70.8828 22.3516V31H67.8125V23.0781C67.8125 22.6406 67.7539 22.2656 67.6367 21.9531C67.5195 21.6328 67.3594 21.3633 67.1562 21.1445C66.9609 20.918 66.7305 20.7344 66.4648 20.5938C66.1992 20.4531 65.9219 20.3477 65.6328 20.2773C65.3516 20.1992 65.0625 20.1484 64.7656 20.125C64.4688 20.0938 64.1875 20.0781 63.9219 20.0781C63.4219 20.0781 62.9453 20.1133 62.4922 20.1836C62.0391 20.2539 61.6094 20.3516 61.2031 20.4766C60.7969 20.5938 60.4141 20.7344 60.0547 20.8984C59.6953 21.0625 59.3594 21.2344 59.0469 21.4141V31H55.9766V21.3203ZM77.9375 31H74.9609V17.6406H77.9375V31ZM76.4609 13C77.0391 13 77.4961 13.0977 77.832 13.293C78.168 13.4805 78.3359 13.7812 78.3359 14.1953V14.7812C78.3359 15.1562 78.168 15.4258 77.832 15.5898C77.4961 15.7539 77.0391 15.8359 76.4609 15.8359C75.9062 15.8359 75.457 15.7539 75.1133 15.5898C74.7773 15.4258 74.6094 15.1562 74.6094 14.7812V14.1953C74.6094 13.7812 74.7773 13.4805 75.1133 13.293C75.457 13.0977 75.9062 13 76.4609 13ZM85.4844 31H82.8125V13.3984H85.4844V31ZM94.1328 25.5391C94.4141 25.5391 94.6914 25.5625 94.9648 25.6094C95.2383 25.6562 95.4844 25.7266 95.7031 25.8203C95.9219 25.9141 96.0977 26.0391 96.2305 26.1953C96.3633 26.3438 96.4297 26.5234 96.4297 26.7344V27.6953C96.4297 27.9141 96.4141 28.2188 96.3828 28.6094C96.3594 28.9922 96.2969 29.4023 96.1953 29.8398C96.1016 30.2773 95.9531 30.7109 95.75 31.1406C95.5547 31.5703 95.2891 31.9375 94.9531 32.2422H93.0312C93.4219 31.7578 93.6992 31.2852 93.8633 30.8242C94.0273 30.3633 94.1094 29.9141 94.1094 29.4766C93.8281 29.4766 93.5508 29.457 93.2773 29.418C93.0039 29.3789 92.7617 29.3203 92.5508 29.2422C92.3398 29.1562 92.168 29.0469 92.0352 28.9141C91.9023 28.7812 91.8359 28.625 91.8359 28.4453V26.7344C91.8359 26.5234 91.9023 26.3438 92.0352 26.1953C92.168 26.0391 92.3438 25.9141 92.5625 25.8203C92.7812 25.7266 93.0273 25.6562 93.3008 25.6094C93.5742 25.5625 93.8516 25.5391 94.1328 25.5391ZM94.1328 19.3984C94.4141 19.3984 94.6914 19.4219 94.9648 19.4688C95.2383 19.5156 95.4844 19.5859 95.7031 19.6797C95.9219 19.7734 96.0977 19.8945 96.2305 20.043C96.3633 20.1914 96.4297 20.3672 96.4297 20.5703V22.3047C96.4297 22.4844 96.3633 22.6406 96.2305 22.7734C96.0977 22.9062 95.9219 23.0156 95.7031 23.1016C95.4844 23.1797 95.2383 23.2383 94.9648 23.2773C94.6914 23.3164 94.4141 23.3359 94.1328 23.3359C93.8516 23.3359 93.5742 23.3164 93.3008 23.2773C93.0273 23.2383 92.7812 23.1797 92.5625 23.1016C92.3438 23.0156 92.168 22.9062 92.0352 22.7734C91.9023 22.6406 91.8359 22.4844 91.8359 22.3047V20.5703C91.8359 20.3672 91.9023 20.1914 92.0352 20.043C92.168 19.8945 92.3438 19.7734 92.5625 19.6797C92.7812 19.5859 93.0273 19.5156 93.3008 19.4688C93.5742 19.4219 93.8516 19.3984 94.1328 19.3984Z" fill="white"/>
<defs>
<linearGradient id="paint0_linear_7_2428" x1="16" y1="3" x2="16" y2="33" gradientUnits="userSpaceOnUse">
<stop stop-color="#7A7A7C"/>
<stop offset="1" stop-color="#DEDEE2"/>
</linearGradient>
<linearGradient id="paint1_linear_7_2428" x1="16" y1="3" x2="16" y2="33" gradientUnits="userSpaceOnUse">
<stop stop-color="#7A7A7C"/>
<stop offset="1" stop-color="#DEDEE2"/>
</linearGradient>
<linearGradient id="paint2_linear_7_2428" x1="16" y1="3" x2="16" y2="33" gradientUnits="userSpaceOnUse">
<stop stop-color="#7A7A7C"/>
<stop offset="1" stop-color="#DEDEE2"/>
</linearGradient>
</defs>
</svg>
